<svg width="150" height="154" viewBox="0 0 150 154" fill="none" xmlns="http://www.w3.org/2000/svg">
<path d="M55.208 36.68C61.2667 37.3627 66.7707 39.1973 71.72 42.184C76.7547 45.0853 80.68 48.584 83.496 52.68C86.312 56.776 87.72 60.872 87.72 64.968C87.72 71.112 86.1413 77.64 82.984 84.552C79.8267 91.464 75.432 97.2667 69.8 101.96C64.168 106.653 57.896 109 50.984 109C47.5707 109 43.944 107.763 40.104 105.288C36.264 102.728 33.0213 99.656 30.376 96.072C27.816 92.4027 26.536 89.16 26.536 86.344C26.536 81.1387 27.176 75.8053 28.456 70.344C29.736 64.7973 31.6987 59.4213 34.344 54.216C36.8187 52.8507 39.2933 52.168 41.768 52.168C42.8773 52.168 43.9013 52.296 44.84 52.552C44.4987 51.528 44.328 50.3333 44.328 48.968C44.328 46.2373 45.2667 43.7627 47.144 41.544C49.1067 39.3253 51.7947 37.704 55.208 36.68ZM46.376 94.408C53.4587 92.0187 58.9627 87.9227 62.888 82.12C66.8133 76.3173 69.416 69.4053 70.696 61.384C66.856 58.6533 61.6507 57.288 55.08 57.288C53.4587 57.288 52.2213 57.3307 51.368 57.416C52.3067 59.1227 52.776 61.0427 52.776 63.176C50.5573 66.6747 48.8507 70.5573 47.656 74.824C46.4613 79.0053 45.864 83.2293 45.864 87.496C45.864 90.056 46.0347 92.36 46.376 94.408Z" fill="#CB8B34"/>
<path d="M67.072 71.784C67.072 73 66.592 74.472 65.632 76.2C64.608 77.864 63.424 79.304 62.08 80.52C60.672 81.736 59.424 82.344 58.336 82.344C56.608 82.344 54.88 81.896 53.152 81C51.424 80.104 50.176 78.984 49.408 77.64C49.088 77 48.928 75.976 48.928 74.568C48.928 72.264 49.44 69.96 50.464 67.656C51.488 65.288 52.768 63.848 54.304 63.336C54.624 63.208 55.104 63.144 55.744 63.144C57.216 63.144 58.848 63.592 60.64 64.488C62.432 65.384 63.968 66.504 65.248 67.848C66.464 69.192 67.072 70.504 67.072 71.784ZM124 78.312C124 79.976 123.456 81.864 122.368 83.976C121.216 86.024 119.904 87.816 118.432 89.352C116.896 90.824 115.616 91.56 114.592 91.56C113.44 91.56 111.744 91.144 109.504 90.312C107.264 89.48 104.192 88.232 100.288 86.568C97.28 85.288 94.944 84.328 93.28 83.688C91.552 83.048 90.336 82.728 89.632 82.728C89.12 82.728 88.576 83.048 88 83.688C87.36 84.264 86.592 85.16 85.696 86.376C84.608 87.784 83.744 88.84 83.104 89.544C82.464 90.184 81.792 90.504 81.088 90.504C79.744 90.504 78.176 89.896 76.384 88.68C74.592 87.4 73.056 85.928 71.776 84.264C70.496 82.536 69.856 81.064 69.856 79.848C69.856 78.376 70.496 76.776 71.776 75.048C73.056 73.256 74.592 71.752 76.384 70.536C78.112 69.256 79.52 68.616 80.608 68.616C83.424 68.616 87.456 69.352 92.704 70.824C97.888 72.232 103.488 74.056 109.504 76.296C108.8 74.76 108.064 73.416 107.296 72.264C106.528 71.112 105.344 69.512 103.744 67.464C104.704 64.584 106.08 62.472 107.872 61.128C109.6 59.784 111.488 59.112 113.536 59.112C115.2 59.112 116.832 60.2 118.432 62.376C120.032 64.488 121.376 67.08 122.464 70.152C123.488 73.224 124 75.944 124 78.312Z" fill="#CB8B34"/>
</svg>
