<svg width="99" height="60" viewBox="0 0 99 60" fill="none" xmlns="http://www.w3.org/2000/svg">
<path d="M49.5 22.6475V16.25C49.4987 15.7559 49.2561 15.2732 48.8028 14.8625C48.3495 14.4519 47.7058 14.1317 46.9528 13.9425C46.1998 13.7532 45.3712 13.7032 44.5715 13.7989C43.7717 13.8945 43.0365 14.1315 42.4586 14.48L16.5 30L42.4586 45.5175C42.8408 45.7504 43.2952 45.9353 43.7957 46.0615C44.2962 46.1876 44.8329 46.2526 45.375 46.2526C45.9171 46.2526 46.4538 46.1876 46.9543 46.0615C47.4548 45.9353 47.9092 45.7504 48.2914 45.5175C48.6746 45.2855 48.9786 45.0099 49.186 44.7066C49.3934 44.4034 49.5001 44.0783 49.5 43.75V37.5275C60.8438 37.6975 73.2394 38.9425 82.5 47.5V45C82.5 33.4175 68.0625 23.8925 49.5 22.6475Z" fill="white"/>
</svg>
