<svg width="40" height="40" viewBox="0 0 40 40" fill="none" xmlns="http://www.w3.org/2000/svg">
<path d="M33.3334 13.3333L20 21.6667L6.66671 13.3333V10L20 18.3333L33.3334 10M33.3334 6.66666H6.66671C4.81671 6.66666 3.33337 8.15 3.33337 10V30C3.33337 30.8841 3.68456 31.7319 4.30968 32.357C4.93481 32.9821 5.78265 33.3333 6.66671 33.3333H33.3334C34.2174 33.3333 35.0653 32.9821 35.6904 32.357C36.3155 31.7319 36.6667 30.8841 36.6667 30V10C36.6667 9.11594 36.3155 8.2681 35.6904 7.64297C35.0653 7.01785 34.2174 6.66666 33.3334 6.66666Z" fill="white"/>
</svg>
