<svg width="40" height="40" viewBox="0 0 40 40" fill="none" xmlns="http://www.w3.org/2000/svg">
<path d="M30 13.3333H28.3333V10C28.3333 5.4 24.6 1.66666 20 1.66666C15.4 1.66666 11.6667 5.4 11.6667 10V13.3333H10C8.16667 13.3333 6.66667 14.8333 6.66667 16.6667V33.3333C6.66667 35.1667 8.16667 36.6667 10 36.6667H30C31.8333 36.6667 33.3333 35.1667 33.3333 33.3333V16.6667C33.3333 14.8333 31.8333 13.3333 30 13.3333ZM20 28.3333C18.1667 28.3333 16.6667 26.8333 16.6667 25C16.6667 23.1667 18.1667 21.6667 20 21.6667C21.8333 21.6667 23.3333 23.1667 23.3333 25C23.3333 26.8333 21.8333 28.3333 20 28.3333ZM25.1667 13.3333H14.8333V10C14.8333 7.15 17.15 4.83333 20 4.83333C22.85 4.83333 25.1667 7.15 25.1667 10V13.3333Z" fill="white"/>
</svg>
