<svg width="100" height="100" viewBox="0 0 100 100" fill="none" xmlns="http://www.w3.org/2000/svg">
<rect width="100" height="100" rx="50" fill="#CB8B34"/>
<path d="M23.3333 50C23.3333 50.8841 23.6845 51.7319 24.3096 52.357C24.9348 52.9822 25.7826 53.3333 26.6667 53.3333L51.9667 53.3333L44.3 60.9667C43.9892 61.2775 43.7427 61.6464 43.5745 62.0525C43.4063 62.4586 43.3197 62.8938 43.3197 63.3333C43.3197 63.7729 43.4063 64.2081 43.5745 64.6142C43.7427 65.0202 43.9892 65.3892 44.3 65.7C44.6108 66.0108 44.9798 66.2573 45.3858 66.4255C45.7919 66.5937 46.2271 66.6803 46.6667 66.6803C47.1062 66.6803 47.5414 66.5937 47.9475 66.4255C48.3536 66.2573 48.7225 66.0108 49.0333 65.7L62.3667 52.3667C62.6701 52.0497 62.908 51.6758 63.0667 51.2667C63.4001 50.4551 63.4001 49.5449 63.0667 48.7333C62.908 48.3242 62.6701 47.9504 62.3667 47.6333L49.0333 34.3C48.7235 33.9876 48.3548 33.7396 47.9486 33.5704C47.5424 33.4011 47.1067 33.314 46.6667 33.314C46.2266 33.314 45.7909 33.4011 45.3847 33.5704C44.9785 33.7396 44.6099 33.9876 44.3 34.3C43.9876 34.6099 43.7396 34.9786 43.5704 35.3848C43.4011 35.791 43.314 36.2266 43.314 36.6667C43.314 37.1067 43.4011 37.5424 43.5704 37.9486C43.7396 38.3548 43.9876 38.7235 44.3 39.0333L51.9667 46.6667L26.6667 46.6667C25.7826 46.6667 24.9348 47.0179 24.3096 47.643C23.6845 48.2681 23.3333 49.116 23.3333 50ZM33.3333 83.3333H66.6667C69.3188 83.3333 71.8624 82.2798 73.7377 80.4044C75.6131 78.529 76.6667 75.9855 76.6667 73.3333V26.6667C76.6667 24.0145 75.6131 21.471 73.7377 19.5956C71.8624 17.7202 69.3188 16.6667 66.6667 16.6667H33.3333C30.6812 16.6667 28.1376 17.7202 26.2623 19.5956C24.3869 21.471 23.3333 24.0145 23.3333 26.6667V36.6667C23.3333 37.5507 23.6845 38.3986 24.3096 39.0237C24.9348 39.6488 25.7826 40 26.6667 40C27.5507 40 28.3986 39.6488 29.0237 39.0237C29.6488 38.3986 30 37.5507 30 36.6667V26.6667C30 25.7826 30.3512 24.9348 30.9763 24.3097C31.6014 23.6845 32.4493 23.3333 33.3333 23.3333L66.6667 23.3333C67.5507 23.3333 68.3986 23.6845 69.0237 24.3097C69.6488 24.9348 70 25.7826 70 26.6667V73.3333C70 74.2174 69.6488 75.0652 69.0237 75.6904C68.3986 76.3155 67.5507 76.6667 66.6667 76.6667H33.3333C32.4493 76.6667 31.6014 76.3155 30.9763 75.6904C30.3512 75.0652 30 74.2174 30 73.3333V63.3333C30 62.4493 29.6488 61.6014 29.0237 60.9763C28.3986 60.3512 27.5507 60 26.6667 60C25.7826 60 24.9348 60.3512 24.3096 60.9763C23.6845 61.6014 23.3333 62.4493 23.3333 63.3333V73.3333C23.3333 75.9855 24.3869 78.529 26.2623 80.4044C28.1376 82.2798 30.6812 83.3333 33.3333 83.3333Z" fill="white"/>
</svg>
