<svg width="40" height="44" viewBox="0 0 40 44" fill="none" xmlns="http://www.w3.org/2000/svg">
<g clip-path="url(#clip0_2_176)">
<path d="M40 23.3333C40 26.0417 39.4705 28.6285 38.4115 31.0938C37.3524 33.559 35.9288 35.6858 34.1406 37.474C32.3524 39.2622 30.2257 40.6858 27.7604 41.7448C25.2951 42.8038 22.7083 43.3333 20 43.3333C17.2917 43.3333 14.7049 42.8038 12.2396 41.7448C9.77431 40.6858 7.64757 39.2622 5.85938 37.474C4.07118 35.6858 2.64757 33.559 1.58854 31.0938C0.529514 28.6285 0 26.0417 0 23.3333C0 20.1736 0.698785 17.1962 2.09635 14.401C3.49392 11.6059 5.46007 9.26215 7.99479 7.36979C8.74132 6.81424 9.57031 6.59722 10.4818 6.71875C11.3932 6.84028 12.1181 7.27431 12.6562 8.02083C13.2118 8.75 13.4245 9.57031 13.2943 10.4818C13.1641 11.3932 12.7344 12.1267 12.0052 12.6823C10.3038 13.967 8.98872 15.5382 8.0599 17.3958C7.13108 19.2535 6.66667 21.2326 6.66667 23.3333C6.66667 25.1389 7.01823 26.862 7.72135 28.5026C8.42448 30.1432 9.375 31.5625 10.5729 32.7604C11.7708 33.9583 13.1901 34.9089 14.8307 35.612C16.4714 36.3151 18.1944 36.6667 20 36.6667C21.8056 36.6667 23.5286 36.3151 25.1693 35.612C26.8099 34.9089 28.2292 33.9583 29.4271 32.7604C30.625 31.5625 31.5755 30.1432 32.2786 28.5026C32.9818 26.862 33.3333 25.1389 33.3333 23.3333C33.3333 21.2326 32.8689 19.2535 31.9401 17.3958C31.0113 15.5382 29.6962 13.967 27.9948 12.6823C27.2656 12.1267 26.8359 11.3932 26.7057 10.4818C26.5755 9.57031 26.7882 8.75 27.3438 8.02083C27.8819 7.27431 28.6111 6.84028 29.5312 6.71875C30.4514 6.59722 31.276 6.81424 32.0052 7.36979C34.5399 9.26215 36.5061 11.6059 37.9036 14.401C39.3012 17.1962 40 20.1736 40 23.3333ZM23.3333 3.33333V20C23.3333 20.9028 23.0035 21.684 22.3438 22.3438C21.684 23.0035 20.9028 23.3333 20 23.3333C19.0972 23.3333 18.316 23.0035 17.6562 22.3438C16.9965 21.684 16.6667 20.9028 16.6667 20V3.33333C16.6667 2.43056 16.9965 1.64931 17.6562 0.989583C18.316 0.329861 19.0972 0 20 0C20.9028 0 21.684 0.329861 22.3438 0.989583C23.0035 1.64931 23.3333 2.43056 23.3333 3.33333Z" fill="white"/>
</g>
<defs>
<clipPath id="clip0_2_176">
<rect width="40" height="43.3333" fill="white"/>
</clipPath>
</defs>
</svg>
