<svg width="100" height="100" viewBox="0 0 100 100" fill="none" xmlns="http://www.w3.org/2000/svg">
<rect width="100" height="100" rx="50" fill="#CB8B34"/>
<path d="M60 56.6667C51.1 56.6667 33.3334 61.1 33.3334 70V76.6667H86.6667V70C86.6667 61.1 68.9 56.6667 60 56.6667ZM30 43.3333V33.3333H23.3334V43.3333H13.3334V50H23.3334V60H30V50H40V43.3333M60 50C63.5363 50 66.9276 48.5953 69.4281 46.0948C71.9286 43.5943 73.3334 40.2029 73.3334 36.6667C73.3334 33.1305 71.9286 29.7391 69.4281 27.2386C66.9276 24.7381 63.5363 23.3333 60 23.3333C56.4638 23.3333 53.0724 24.7381 50.572 27.2386C48.0715 29.7391 46.6667 33.1305 46.6667 36.6667C46.6667 40.2029 48.0715 43.5943 50.572 46.0948C53.0724 48.5953 56.4638 50 60 50Z" fill="white"/>
</svg>
