<svg width="40" height="40" viewBox="0 0 40 40" fill="none" xmlns="http://www.w3.org/2000/svg">
<path d="M20 6.66667C21.7681 6.66667 23.4638 7.36905 24.7141 8.61929C25.9643 9.86954 26.6667 11.5652 26.6667 13.3333C26.6667 15.1014 25.9643 16.7971 24.7141 18.0474C23.4638 19.2976 21.7681 20 20 20C18.2319 20 16.5362 19.2976 15.286 18.0474C14.0357 16.7971 13.3333 15.1014 13.3333 13.3333C13.3333 11.5652 14.0357 9.86954 15.286 8.61929C16.5362 7.36905 18.2319 6.66667 20 6.66667ZM20 23.3333C27.3667 23.3333 33.3333 26.3167 33.3333 30V33.3333H6.66667V30C6.66667 26.3167 12.6333 23.3333 20 23.3333Z" fill="white"/>
</svg>
