<svg width="18" height="18" viewBox="0 0 18 18" fill="none" xmlns="http://www.w3.org/2000/svg">
<rect width="18" height="18" rx="9" fill="#DC2626"/>
<path d="M12.922 5.92188C13.2476 5.59635 13.2476 5.06771 12.922 4.74219C12.5965 4.41667 12.0679 4.41667 11.7424 4.74219L9.00016 7.48698L6.25537 4.74479C5.92985 4.41927 5.4012 4.41927 5.07568 4.74479C4.75016 5.07031 4.75016 5.59896 5.07568 5.92448L7.82048 8.66667L5.07829 11.4115C4.75277 11.737 4.75277 12.2656 5.07829 12.5911C5.40381 12.9167 5.93245 12.9167 6.25798 12.5911L9.00016 9.84635L11.745 12.5885C12.0705 12.9141 12.5991 12.9141 12.9246 12.5885C13.2502 12.263 13.2502 11.7344 12.9246 11.4089L10.1799 8.66667L12.922 5.92188Z" fill="white"/>
</svg>
